<?xml version="1.0" encoding="UTF-8" standalone="no"?>
<!-- Created with Inkscape (http://www.inkscape.org/) -->

<svg
   width="54.01664mm"
   height="14.740204mm"
   viewBox="0 0 54.016639 14.740203"
   version="1.1"
   id="svg1"
   inkscape:version="1.3.2 (091e20ef0f, 2023-11-25, custom)"
   sodipodi:docname="editpix-logo.svg"
   xmlns:inkscape="http://www.inkscape.org/namespaces/inkscape"
   xmlns:sodipodi="http://sodipodi.sourceforge.net/DTD/sodipodi-0.dtd"
   xmlns="http://www.w3.org/2000/svg"
   xmlns:svg="http://www.w3.org/2000/svg">
  <sodipodi:namedview
     id="namedview1"
     pagecolor="#ffffff"
     bordercolor="#000000"
     borderopacity="0.25"
     inkscape:showpageshadow="2"
     inkscape:pageopacity="0.0"
     inkscape:pagecheckerboard="0"
     inkscape:deskcolor="#d1d1d1"
     inkscape:document-units="mm"
     inkscape:zoom="1.5473164"
     inkscape:cx="94.356914"
     inkscape:cy="38.130534"
     inkscape:window-width="1920"
     inkscape:window-height="1022"
     inkscape:window-x="0"
     inkscape:window-y="0"
     inkscape:window-maximized="1"
     inkscape:current-layer="layer1" />
  <defs
     id="defs1" />
  <g
     inkscape:label="Layer 1"
     inkscape:groupmode="layer"
     id="layer1"
     transform="translate(-40.716036,-65.231907)">
    <path
       style="font-weight:bold;font-size:17.6389px;font-family:'Aribau Rounded Trial';-inkscape-font-specification:'Aribau Rounded Trial, Bold';font-variation-settings:'wght' 700;letter-spacing:-1.03717px;fill:#000000;stroke:#ffffff;stroke-width:1.317;stroke-linecap:round;stroke-linejoin:round;stroke-dasharray:none;stroke-opacity:1;paint-order:stroke fill markers"
       d="m 41.374536,68.09527 v 9.666118 c 0,0.846667 0.47625,1.340556 1.340556,1.340556 h 6.402921 c 0.617362,0 1.12889,-0.493889 1.12889,-1.12889 0,-0.635 -0.511528,-1.128889 -1.12889,-1.128889 H 44.03801 v -3.033891 h 4.427364 c 0.582084,0 1.040695,-0.476251 1.040695,-1.075973 0,-0.582084 -0.458611,-1.058334 -1.040695,-1.058334 H 44.03801 v -2.663474 h 4.903614 c 0.617362,0 1.111251,-0.511528 1.111251,-1.12889 0,-0.635 -0.493889,-1.12889 -1.111251,-1.12889 h -6.226532 c -0.864306,0 -1.340556,0.476251 -1.340556,1.340557 z m 13.162155,11.218341 c 1.270001,0 2.275418,-0.529167 2.839863,-1.428751 v 0.264583 c 0,0.617362 0.511528,1.075973 1.199445,1.075973 0.670278,0 1.199446,-0.529167 1.199446,-1.199445 V 67.372075 c 0,-0.705556 -0.582084,-1.270001 -1.270001,-1.270001 -0.705556,0 -1.270001,0.564445 -1.270001,1.270001 v 3.721808 c -0.635001,-0.740834 -1.534585,-1.164167 -2.698752,-1.164167 -2.434168,0 -4.127503,2.010834 -4.127503,4.744864 0,2.734029 1.710974,4.639031 4.127503,4.639031 z m -1.552223,-4.691948 c 0,-1.552223 0.811389,-2.628196 2.099029,-2.628196 1.28764,0 2.187224,1.058334 2.187224,2.628196 0,1.569862 -0.864307,2.610557 -2.187224,2.610557 -1.270001,0 -2.099029,-1.075972 -2.099029,-2.610557 z m 9.352157,4.603753 c 0.705556,0 1.27,-0.564445 1.27,-1.270001 v -6.685143 c 0,-0.687917 -0.564444,-1.270001 -1.27,-1.270001 -0.687918,0 -1.270001,0.582084 -1.270001,1.270001 v 6.685143 c 0,0.705556 0.582083,1.270001 1.270001,1.270001 z M 60.819679,67.372075 c 0,0.811389 0.617362,1.481668 1.516946,1.481668 0.934861,0 1.552223,-0.670279 1.552223,-1.481668 0,-0.811389 -0.617362,-1.481668 -1.552223,-1.481668 -0.899584,0 -1.516946,0.670279 -1.516946,1.481668 z m 4.20159,4.762503 h 0.564445 v 4.268614 c 0,1.675696 0.846667,2.910419 3.21028,2.910419 0.599723,0 1.199445,-0.08819 1.852085,-0.388056 0.352778,-0.15875 0.652639,-0.511528 0.652639,-0.934862 0,-0.705556 -0.582084,-1.164167 -1.305279,-0.9525 -0.246944,0.07055 -0.493889,0.123472 -0.723195,0.123472 -0.934861,0 -1.146528,-0.423334 -1.146528,-1.164168 v -3.862919 h 1.569862 c 0.546806,0 1.005417,-0.440972 1.005417,-1.005417 0,-0.546806 -0.458611,-0.987779 -1.005417,-0.987779 h -1.569862 v -1.76389 c 0,-0.687917 -0.582084,-1.270001 -1.270001,-1.270001 -0.705556,0 -1.270001,0.582084 -1.270001,1.270001 v 1.76389 h -0.564445 c -0.546806,0 -1.005417,0.440973 -1.005417,0.987779 0,0.564445 0.458611,1.005417 1.005417,1.005417 z m 6.759254,-4.039308 v 9.807229 c 0,0.740834 0.582083,1.322917 1.340556,1.322917 0.723195,0 1.322918,-0.582083 1.322918,-1.322917 v -2.628196 h 2.804585 c 2.73403,0 4.586114,-2.010835 4.586114,-4.445003 0,-2.204863 -1.816807,-4.074587 -4.533197,-4.074587 h -4.18042 c -0.864306,0 -1.340556,0.476251 -1.340556,1.340557 z m 2.663474,4.991809 v -4.162781 h 2.434168 c 1.358195,0 2.257779,0.829029 2.257779,1.957918 0,1.270001 -0.899584,2.204863 -2.257779,2.204863 z m 9.193403,6.138337 c 0.705556,0 1.270001,-0.564445 1.270001,-1.270001 v -6.685143 c 0,-0.687917 -0.564445,-1.270001 -1.270001,-1.270001 -0.687917,0 -1.270001,0.582084 -1.270001,1.270001 v 6.685143 c 0,0.705556 0.582084,1.270001 1.270001,1.270001 z M 82.120455,67.372075 c 0,0.811389 0.617361,1.481668 1.516945,1.481668 0.934862,0 1.552223,-0.670279 1.552223,-1.481668 0,-0.811389 -0.617361,-1.481668 -1.552223,-1.481668 -0.899584,0 -1.516945,0.670279 -1.516945,1.481668 z m 4.095756,4.49792 2.222502,2.734029 -2.328335,2.839863 c -0.582084,0.723195 -0.05292,1.781529 0.899584,1.781529 0.370417,0 0.687917,-0.194028 0.917223,-0.47625 l 1.975557,-2.469446 1.993195,2.451807 c 0.264584,0.3175 0.564445,0.493889 0.97014,0.493889 1.023056,0 1.552223,-1.199445 0.970139,-1.887362 l -2.363612,-2.822224 2.222501,-2.716391 c 0.635001,-0.776112 0.05292,-1.799168 -0.881945,-1.799168 -0.352778,0 -0.705556,0.194028 -0.9525,0.511528 l -1.834446,2.363613 -1.834446,-2.363613 c -0.229305,-0.299861 -0.582083,-0.511528 -0.987778,-0.511528 -0.917223,0 -1.640418,1.075973 -0.987779,1.869724 z"
       id="text1"
       aria-label="EditPix" />
  </g>
</svg>
